<svg width="175" height="41" viewBox="0 0 175 41" fill="none" xmlns="http://www.w3.org/2000/svg">
<path d="M29.0944 12.6927L13.9964 38.7815C12.4665 41.4253 9.07805 40.6809 8.1835 37.4948L0.645773 10.6982C0.439624 10.1324 0.358805 9.52059 0.410025 8.91336C0.461249 8.30628 0.643031 7.72132 0.94029 7.20712C1.23755 6.69306 1.64171 6.26444 2.11923 5.95713C2.59675 5.64981 3.13386 5.47244 3.68597 5.43984L26.3206 6.15191C29.0073 6.23625 30.6244 10.0489 29.0944 12.6927Z" fill="#1DACE3"/>
<path d="M33.2878 20.6126L7.17729 36.6621C6.57996 37.029 5.90234 37.2068 5.21918 37.1759C4.53601 37.1451 3.87385 36.9068 3.30571 36.4872C2.73757 36.0677 2.28551 35.4833 1.9994 34.7984C1.71329 34.1136 1.60424 33.3549 1.68428 32.606L4.67201 4.65486C4.74082 4.01141 4.94713 3.39508 5.27399 2.85655C5.60088 2.31816 6.03897 1.87299 6.55225 1.55759C7.06554 1.24232 7.63935 1.06577 8.22654 1.04273C8.81371 1.01969 9.39748 1.15068 9.92981 1.4248L33.0528 13.3335C33.6707 13.6535 34.1967 14.1551 34.5729 14.7832C34.9491 15.4114 35.161 16.1416 35.1853 16.8939C35.2096 17.6463 35.0454 18.3914 34.7107 19.0474C34.3758 19.7035 33.8835 20.245 33.2878 20.6126Z" fill="#FB6908"/>
<path d="M4.58366 5.47259L3.09422 19.406L7.83511 36.2538L19.6607 28.9874L29.0942 12.6927C29.2999 12.3333 29.4537 11.9408 29.55 11.5294L18.6436 5.91218L4.58366 5.47259Z" fill="#001A49"/>
<path d="M57.6356 29.1556C56.1841 29.1556 54.8375 28.9282 53.5958 28.4735C52.3716 28.0013 51.3048 27.3368 50.3954 26.4798C49.5034 25.6229 48.8039 24.6173 48.2967 23.463C47.7895 22.2913 47.536 21.0059 47.536 19.6068C47.536 18.2077 47.7895 16.931 48.2967 15.7768C48.8039 14.605 49.5034 13.5907 50.3954 12.7338C51.3048 11.8768 52.3716 11.221 53.5958 10.7663C54.8375 10.2941 56.1841 10.058 57.6356 10.058C59.332 10.058 60.8448 10.3553 62.1739 10.9499C63.5206 11.5445 64.6398 12.4015 65.5318 13.5208L62.2264 16.5113C61.6318 15.8118 60.976 15.2784 60.2589 14.9111C59.5594 14.5438 58.7724 14.3602 57.898 14.3602C57.146 14.3602 56.4552 14.4826 55.8256 14.7275C55.196 14.9723 54.6538 15.3308 54.1991 15.803C53.7619 16.2577 53.4121 16.8086 53.1498 17.4557C52.905 18.1028 52.7826 18.8198 52.7826 19.6068C52.7826 20.3938 52.905 21.1108 53.1498 21.7579C53.4121 22.405 53.7619 22.9646 54.1991 23.4368C54.6538 23.8915 55.196 24.2413 55.8256 24.4861C56.4552 24.731 57.146 24.8534 57.898 24.8534C58.7724 24.8534 59.5594 24.6698 60.2589 24.3025C60.976 23.9352 61.6318 23.4018 62.2264 22.7023L65.5318 25.6928C64.6398 26.7946 63.5206 27.6516 62.1739 28.2637C60.8448 28.8583 59.332 29.1556 57.6356 29.1556ZM67.6115 28.7883V14.5701H72.5958V28.7883H67.6115ZM70.1037 12.9961C69.1943 12.9961 68.4597 12.7425 67.9001 12.2353C67.3405 11.7282 67.0606 11.0986 67.0606 10.3466C67.0606 9.59456 67.3405 8.96497 67.9001 8.4578C68.4597 7.95063 69.1943 7.69704 70.1037 7.69704C71.0131 7.69704 71.7476 7.94188 72.3072 8.43156C72.8669 8.90376 73.1467 9.51586 73.1467 10.2679C73.1467 11.0549 72.8669 11.7107 72.3072 12.2353C71.7651 12.7425 71.0306 12.9961 70.1037 12.9961ZM85.0952 14.334C86.197 14.334 87.1938 14.5613 88.0857 15.016C88.9776 15.4532 89.6772 16.1353 90.1844 17.0622C90.709 17.9891 90.9714 19.1871 90.9714 20.6561V28.7883H85.9871V21.4693C85.9871 20.455 85.7772 19.7205 85.3575 19.2658C84.9553 18.7936 84.3869 18.5575 83.6524 18.5575C83.1277 18.5575 82.6468 18.6799 82.2096 18.9247C81.7723 19.1521 81.4313 19.5106 81.1865 20.0003C80.9416 20.49 80.8192 21.1283 80.8192 21.9153V28.7883H75.8349V14.5701H80.5831V18.6099L79.665 17.4295C80.2071 16.3976 80.9504 15.6281 81.8948 15.121C82.8391 14.5963 83.9059 14.334 85.0952 14.334ZM101.73 29.0244C100.051 29.0244 98.5822 28.7096 97.323 28.08C96.0813 27.433 95.1107 26.5585 94.4111 25.4567C93.7291 24.3375 93.3881 23.0695 93.3881 21.653C93.3881 20.2364 93.7203 18.9772 94.3849 17.8754C95.067 16.7561 96.0026 15.8905 97.1918 15.2784C98.3811 14.6488 99.7189 14.334 101.205 14.334C102.605 14.334 103.881 14.6225 105.035 15.1997C106.19 15.7593 107.108 16.59 107.79 17.6918C108.472 18.7936 108.813 20.1315 108.813 21.7054C108.813 21.8803 108.804 22.0814 108.787 22.3088C108.769 22.5361 108.752 22.746 108.734 22.9384H97.4804V20.3151H106.085L104.196 21.0496C104.214 20.4025 104.091 19.8429 103.829 19.3707C103.584 18.8985 103.234 18.5312 102.779 18.2689C102.342 18.0066 101.826 17.8754 101.232 17.8754C100.637 17.8754 100.112 18.0066 99.6577 18.2689C99.2205 18.5312 98.8795 18.9072 98.6346 19.3969C98.3898 19.8691 98.2674 20.4288 98.2674 21.0758V21.8366C98.2674 22.5361 98.4073 23.1395 98.6871 23.6467C98.9844 24.1538 99.4041 24.5473 99.9463 24.8271C100.488 25.0895 101.136 25.2206 101.888 25.2206C102.587 25.2206 103.182 25.1245 103.671 24.9321C104.179 24.7222 104.677 24.4074 105.167 23.9877L107.79 26.7159C107.108 27.4679 106.268 28.0451 105.272 28.4473C104.275 28.832 103.094 29.0244 101.73 29.0244ZM111.347 28.7883V10.4253H120.739C123.152 10.4253 124.953 10.8712 126.143 11.7631C127.332 12.6376 127.926 13.7918 127.926 15.2259C127.926 16.1703 127.673 17.001 127.166 17.718C126.676 18.4176 125.976 18.9772 125.067 19.3969C124.175 19.7992 123.108 20.0003 121.867 20.0003L122.391 18.7411C123.685 18.7411 124.813 18.9422 125.775 19.3445C126.737 19.7292 127.48 20.2976 128.005 21.0496C128.547 21.7841 128.818 22.6848 128.818 23.7516C128.818 25.3431 128.171 26.5848 126.877 27.4767C125.6 28.3511 123.729 28.7883 121.263 28.7883H111.347ZM116.489 25.037H120.843C121.735 25.037 122.409 24.8884 122.863 24.5911C123.336 24.2763 123.572 23.8041 123.572 23.1745C123.572 22.5449 123.336 22.0814 122.863 21.7841C122.409 21.4693 121.735 21.3119 120.843 21.3119H116.122V17.718H120.057C120.931 17.718 121.587 17.5694 122.024 17.2721C122.461 16.9748 122.68 16.5288 122.68 15.9342C122.68 15.3396 122.461 14.9024 122.024 14.6225C121.587 14.3252 120.931 14.1766 120.057 14.1766H116.489V25.037ZM133.712 34.1136C132.96 34.1136 132.199 33.9912 131.43 33.7463C130.678 33.519 130.066 33.2129 129.594 32.8282L131.325 29.3392C131.622 29.6015 131.963 29.8027 132.348 29.9426C132.75 30.1 133.144 30.1787 133.529 30.1787C134.071 30.1787 134.499 30.0562 134.814 29.8114C135.129 29.5666 135.4 29.1818 135.627 28.6572L136.283 27.0045L136.677 26.5061L141.503 14.5701H146.252L140.113 29.3654C139.623 30.5897 139.055 31.5428 138.408 32.2248C137.778 32.9244 137.07 33.4141 136.283 33.6939C135.514 33.9737 134.657 34.1136 133.712 34.1136ZM135.653 29.3917L129.384 14.5701H134.499L139.116 26.0601L135.653 29.3917ZM154.273 29.0244C152.454 29.0244 151.037 28.5785 150.023 27.6865C149.009 26.7771 148.501 25.413 148.501 23.5942V11.3959H153.486V23.5417C153.486 24.0489 153.626 24.4511 153.905 24.7484C154.185 25.0283 154.544 25.1682 154.981 25.1682C155.576 25.1682 156.083 25.0195 156.502 24.7222L157.735 28.2112C157.316 28.491 156.8 28.6921 156.188 28.8146C155.576 28.9545 154.937 29.0244 154.273 29.0244ZM146.429 18.8198V15.0947H156.739V18.8198H146.429ZM166.698 29.0244C165.019 29.0244 163.55 28.7096 162.291 28.08C161.049 27.433 160.078 26.5585 159.379 25.4567C158.697 24.3375 158.356 23.0695 158.356 21.653C158.356 20.2364 158.688 18.9772 159.352 17.8754C160.034 16.7561 160.97 15.8905 162.159 15.2784C163.349 14.6488 164.686 14.334 166.173 14.334C167.572 14.334 168.849 14.6225 170.003 15.1997C171.157 15.7593 172.075 16.59 172.757 17.6918C173.44 18.7936 173.781 20.1315 173.781 21.7054C173.781 21.8803 173.772 22.0814 173.754 22.3088C173.737 22.5361 173.719 22.746 173.702 22.9384H162.448V20.3151H171.052L169.164 21.0496C169.181 20.4025 169.059 19.8429 168.796 19.3707C168.551 18.8985 168.202 18.5312 167.747 18.2689C167.31 18.0066 166.794 17.8754 166.199 17.8754C165.605 17.8754 165.08 18.0066 164.625 18.2689C164.188 18.5312 163.847 18.9072 163.602 19.3969C163.357 19.8691 163.235 20.4288 163.235 21.0758V21.8366C163.235 22.5361 163.375 23.1395 163.655 23.6467C163.952 24.1538 164.372 24.5473 164.914 24.8271C165.456 25.0895 166.103 25.2206 166.855 25.2206C167.555 25.2206 168.149 25.1245 168.639 24.9321C169.146 24.7222 169.644 24.4074 170.134 23.9877L172.757 26.7159C172.075 27.4679 171.236 28.0451 170.239 28.4473C169.242 28.832 168.062 29.0244 166.698 29.0244Z" fill="black"/>
</svg>
